<svg width="42.426514" height="42.426514" viewBox="0 0 42.4265 42.4265" fill="none" xmlns="http://www.w3.org/2000/svg" xmlns:xlink="http://www.w3.org/1999/xlink">
	<desc>
			Created with Pixso.
	</desc>
	<defs>
		<clipPath id="clip2_2847">
			<rect id="Stroke 2/shopping-bag" rx="0.000000" width="29.000000" height="29.000000" transform="matrix(-0.707107 -0.707107 -0.707107 0.707107 42.9265 21.7133)" fill="white" fill-opacity="0"/>
		</clipPath>
	</defs>
	<rect id="Stroke 2/shopping-bag" rx="0.000000" width="29.000000" height="29.000000" transform="matrix(-0.707107 -0.707107 -0.707107 0.707107 42.9265 21.7133)" fill="#FFFFFF" fill-opacity="0"/>
	<g clip-path="url(#clip2_2847)">
		<path id="Vector 26 (Stroke)" d="M6.8 22.38L36.55 22.05C37.1 22.04 37.54 21.59 37.54 21.04C37.53 20.49 37.08 20.04 36.52 20.05L6.63 20.38L18.21 8.03C18.59 7.62 18.57 6.99 18.16 6.61C17.76 6.24 17.13 6.26 16.75 6.66L3.57 20.72C3.19 21.12 3.21 21.76 3.61 22.14L18.32 35.92C18.72 36.3 19.35 36.28 19.73 35.87C20.11 35.47 20.09 34.84 19.68 34.46L6.8 22.38Z" fill="#111111" fill-opacity="1.000000" fill-rule="evenodd"/>
	</g>
</svg>
