<svg width="30.000000" height="30.000000" viewBox="0 0 30 30" fill="none" xmlns="http://www.w3.org/2000/svg" xmlns:xlink="http://www.w3.org/1999/xlink">
	<desc>
			Created with Pixso.
	</desc>
	<defs>
		<clipPath id="clip2_2821">
			<rect id="Stroke 2/shopping-bag" rx="0.000000" width="29.000000" height="29.000000" transform="translate(0.500000 0.500000)" fill="white" fill-opacity="0"/>
		</clipPath>
	</defs>
	<rect id="Stroke 2/shopping-bag" rx="0.000000" width="29.000000" height="29.000000" transform="translate(0.500000 0.500000)" fill="#FFFFFF" fill-opacity="0"/>
	<g clip-path="url(#clip2_2821)">
		<path id="Vector 26 (Stroke)" d="M24.7 25.72L3.22 5.13C2.82 4.75 2.8 4.12 3.19 3.72C3.57 3.32 4.2 3.3 4.6 3.69L26.19 24.37L26.19 7.44C26.19 6.89 26.63 6.44 27.19 6.44C27.74 6.44 28.19 6.89 28.19 7.44L28.19 26.72C28.19 27.27 27.74 27.72 27.19 27.72L7.03 27.72C6.48 27.72 6.03 27.27 6.03 26.72C6.03 26.16 6.48 25.72 7.03 25.72L24.7 25.72Z" fill="#111111" fill-opacity="1.000000" fill-rule="evenodd"/>
	</g>
</svg>
