<svg width="161.000000" height="30.000000" viewBox="0 0 161 30" fill="none" xmlns="http://www.w3.org/2000/svg" xmlns:xlink="http://www.w3.org/1999/xlink">
	<desc>
			Created with Pixso.
	</desc>
	<defs/>
	<path id="Star 1" d="M14.04 2.92L11.85 9.67C11.72 10.08 11.33 10.36 10.9 10.36L3.81 10.36C2.84 10.36 2.44 11.6 3.22 12.17L8.96 16.34C9.31 16.59 9.46 17.04 9.32 17.46L7.13 24.2C6.83 25.12 7.88 25.89 8.67 25.32L14.41 21.15C14.76 20.9 15.23 20.9 15.58 21.15L21.32 25.32C22.11 25.89 23.16 25.12 22.86 24.2L20.67 17.46C20.53 17.04 20.68 16.59 21.03 16.34L26.77 12.17C27.55 11.6 27.15 10.36 26.18 10.36L19.09 10.36C18.66 10.36 18.27 10.08 18.14 9.67L15.95 2.92C15.65 2 14.34 2 14.04 2.92Z" fill="#111111" fill-opacity="1.000000" fill-rule="evenodd"/>
	<path id="Star 6" d="M145.04 2.92L142.85 9.67C142.72 10.08 142.33 10.36 141.9 10.36L134.81 10.36C133.84 10.36 133.44 11.6 134.22 12.17L139.96 16.34C140.31 16.59 140.46 17.04 140.32 17.46L138.13 24.2C137.83 25.12 138.88 25.89 139.67 25.32L145.41 21.15C145.76 20.9 146.23 20.9 146.58 21.15L152.32 25.32C153.11 25.89 154.16 25.12 153.86 24.2L151.67 17.46C151.53 17.04 151.68 16.59 152.03 16.34L157.77 12.17C158.56 11.6 158.15 10.36 157.18 10.36L150.09 10.36C149.66 10.36 149.27 10.08 149.14 9.67L146.95 2.92C146.65 2 145.34 2 145.04 2.92Z" fill="#111111" fill-opacity="1.000000" fill-rule="evenodd"/>
	<path id="Star 7" d="M112.04 2.92L109.85 9.67C109.72 10.08 109.33 10.36 108.9 10.36L101.81 10.36C100.84 10.36 100.44 11.6 101.22 12.17L106.96 16.34C107.31 16.59 107.46 17.04 107.32 17.46L105.13 24.2C104.83 25.12 105.88 25.89 106.67 25.32L112.41 21.15C112.76 20.9 113.23 20.9 113.58 21.15L119.32 25.32C120.11 25.89 121.16 25.12 120.86 24.2L118.67 17.46C118.54 17.04 118.68 16.59 119.03 16.34L124.77 12.17C125.56 11.6 125.15 10.36 124.18 10.36L117.09 10.36C116.66 10.36 116.27 10.08 116.14 9.67L113.95 2.92C113.65 2 112.34 2 112.04 2.92Z" fill="#111111" fill-opacity="1.000000" fill-rule="evenodd"/>
	<path id="Star 8" d="M79.04 2.92L76.85 9.67C76.72 10.08 76.33 10.36 75.9 10.36L68.81 10.36C67.84 10.36 67.44 11.6 68.22 12.17L73.96 16.34C74.31 16.59 74.46 17.04 74.32 17.46L72.13 24.2C71.83 25.12 72.88 25.89 73.67 25.32L79.41 21.15C79.76 20.9 80.23 20.9 80.58 21.15L86.32 25.32C87.11 25.89 88.16 25.12 87.86 24.2L85.67 17.46C85.53 17.04 85.68 16.59 86.03 16.34L91.77 12.17C92.55 11.6 92.15 10.36 91.18 10.36L84.09 10.36C83.66 10.36 83.27 10.08 83.14 9.67L80.95 2.92C80.65 2 79.34 2 79.04 2.92Z" fill="#111111" fill-opacity="1.000000" fill-rule="evenodd"/>
	<path id="Star 9" d="M47.04 2.92L44.85 9.67C44.72 10.08 44.33 10.36 43.9 10.36L36.81 10.36C35.84 10.36 35.44 11.6 36.22 12.17L41.96 16.34C42.31 16.59 42.46 17.04 42.32 17.46L40.13 24.2C39.83 25.12 40.88 25.89 41.67 25.32L47.41 21.15C47.76 20.9 48.23 20.9 48.58 21.15L54.32 25.32C55.11 25.89 56.16 25.12 55.86 24.2L53.67 17.46C53.53 17.04 53.68 16.59 54.03 16.34L59.77 12.17C60.55 11.6 60.15 10.36 59.18 10.36L52.09 10.36C51.66 10.36 51.27 10.08 51.14 9.67L48.95 2.92C48.65 2 47.34 2 47.04 2.92Z" fill="#111111" fill-opacity="1.000000" fill-rule="evenodd"/>
</svg>
